<svg xmlns="http://www.w3.org/2000/svg" width="24" height="24" viewBox="0 0 24 24" fill="none" stroke="currentColor" stroke-width="2" stroke-linecap="round" stroke-linejoin="round" class="lucide lucide-cog">
  <path d="M12 20a8 8 0 1 0 0-16 8 8 0 0 0 0 16Z"/>
  <path d="M12 14a2 2 0 1 0 0-4 2 2 0 0 0 0 4Z"/>
  <path d="M12 2v2"/>
  <path d="M12 22v-2"/>
  <path d="m17.5 6.5-1.4 1.4"/>
  <path d="m6.5 17.5 1.4-1.4"/>
  <path d="M22 12h-2"/>
  <path d="M4 12H2"/>
  <path d="m17.5 17.5-1.4-1.4"/>
  <path d="m6.5 6.5 1.4 1.4"/>
</svg>
